<svg xmlns="http://www.w3.org/2000/svg" width="896" height="1152" viewBox="0 0 896 1152">
<rect width="100%" height="100%" fill="white" />
<polygon points="617,648 552,673 611,833 574,858 584,882 626,875 684,1031 749,1003" fill="none" stroke="#ff0000" stroke-width="3" stroke-linejoin="round"/>
<polygon points="471,154 372,186 342,118 346,89 270,108 314,205 215,245 235,306 453,215 490,216" fill="none" stroke="#ff0000" stroke-width="3" stroke-linejoin="round"/>
<polygon points="559,457 458,491 447,485 430,502 337,537 353,589 573,512" fill="none" stroke="#ff0000" stroke-width="3" stroke-linejoin="round"/>
<polygon points="263,351 254,355 253,359 264,391 267,393 273,391 276,388 276,381 267,359 267,355" fill="none" stroke="#ff0000" stroke-width="3" stroke-linejoin="round"/>
</svg>
